<?xml version="1.0" encoding="iso-8859-1"?>
<!-- Generator: Adobe Illustrator 19.0.0, SVG Export Plug-In . SVG Version: 6.00 Build 0)  -->
<svg version="1.1" id="Layer_1" xmlns="http://www.w3.org/2000/svg" xmlns:xlink="http://www.w3.org/1999/xlink" x="0px" y="0px"
	 viewBox="0 0 371.9 371.9" style="enable-background:new 0 0 371.9 371.9;" xml:space="preserve">
<g id="XMLID_90_">
	<polygon id="XMLID_307_" style="fill:#EFEFEF;" points="258,11.45 258,360.45 10,360.45 10,91.45 90.08,11.45 	"/>
	
		<rect id="XMLID_300_" x="203.531" y="92.665" transform="matrix(0.7071 0.7071 -0.7071 0.7071 206.0992 -112.2367)" style="fill:#61ACD2;" width="70" height="200"/>
	<path id="XMLID_292_" style="fill:#CA463D;" d="M333.991,146.703l-49.497-49.497l17.678-17.678
		c13.668-13.668,35.829-13.668,49.497,0l0,0c13.668,13.668,13.668,35.829,0,49.497L333.991,146.703z"/>
	<polygon id="XMLID_261_" style="fill:#F4A026;" points="192.334,288.861 125.158,306.538 142.836,239.363 	"/>
	<polygon id="XMLID_250_" style="fill:#EFEFEF;" points="90,11.45 90,91.45 10.08,91.45 	"/>
	<g id="XMLID_84_">
		<path id="XMLID_110_" d="M358.74,72.957c-8.5-8.499-19.8-13.18-31.82-13.18c-12.02,0-23.361,4.681-31.86,13.18L268,99.976V11.45
			c0-5.523-4.397-10-9.92-10h-168c-2.652,0-5.196,1.054-7.071,2.929l-80.04,80C1.094,86.254,0,88.798,0,91.45v269
			c0,5.523,4.557,10,10.08,10h248c5.523,0,9.92-4.477,9.92-10V227.257l90.699-90.66c8.5-8.5,13.201-19.8,13.201-31.82
			S367.239,81.457,358.74,72.957z M172.952,283.621l-33.76,8.884l8.884-33.759L172.952,283.621z M192.569,274.483l-35.355-35.355
			l127.279-127.279l35.355,35.355L192.569,274.483z M80,35.592V81.45H34.222L80,35.592z M248,350.45H20v-249h70.08
			c5.523,0,9.92-4.477,9.92-10v-70h148v98.526l-112.04,112.08c-0.049,0.049-0.07,0.102-0.117,0.152
			c-1.278,1.245-2.218,2.824-2.688,4.61l-17.672,67.175c-0.905,3.439,0.087,7.101,2.603,9.616c1.899,1.899,4.454,2.929,7.073,2.929
			c0.848,0,1.704-0.108,2.545-0.329l67.175-17.678c1.785-0.47,3.364-1.42,4.61-2.697c0.05-0.048,0.064-0.089,0.113-0.138
			L248,247.257V350.45z M344.597,122.454l-10.606,10.607l-35.355-35.355L309.242,87.1c4.722-4.722,11-7.323,17.678-7.323
			c6.677,0,12.956,2.601,17.678,7.323c4.722,4.722,7.322,11,7.322,17.677S349.319,117.733,344.597,122.454z"/>
		<path id="XMLID_139_" d="M85.08,296.45h-29c-5.523,0-10,4.477-10,10s4.477,10,10,10h29c5.523,0,10-4.477,10-10
			S90.603,296.45,85.08,296.45z"/>
		<path id="XMLID_140_" d="M90.08,256.45h-34c-5.523,0-10,4.477-10,10s4.477,10,10,10h34c5.523,0,10-4.477,10-10
			S95.603,256.45,90.08,256.45z"/>
		<path id="XMLID_141_" d="M100.08,216.45h-44c-5.523,0-10,4.477-10,10s4.477,10,10,10h44c5.523,0,10-4.477,10-10
			S105.603,216.45,100.08,216.45z"/>
		<path id="XMLID_142_" d="M56.08,196.45h73c5.523,0,10-4.477,10-10s-4.477-10-10-10h-73c-5.523,0-10,4.477-10,10
			S50.557,196.45,56.08,196.45z"/>
		<path id="XMLID_143_" d="M56.08,156.45h114c5.523,0,10-4.477,10-10s-4.477-10-10-10h-114c-5.523,0-10,4.477-10,10
			S50.557,156.45,56.08,156.45z"/>
		<path id="XMLID_145_" d="M130.08,116.45h86c5.523,0,10-4.477,10-10s-4.477-10-10-10h-86c-5.523,0-10,4.477-10,10
			S124.557,116.45,130.08,116.45z"/>
		<path id="XMLID_148_" d="M130.08,76.45h86c5.523,0,10-4.477,10-10s-4.477-10-10-10h-86c-5.523,0-10,4.477-10,10
			S124.557,76.45,130.08,76.45z"/>
	</g>
</g>
<g>
</g>
<g>
</g>
<g>
</g>
<g>
</g>
<g>
</g>
<g>
</g>
<g>
</g>
<g>
</g>
<g>
</g>
<g>
</g>
<g>
</g>
<g>
</g>
<g>
</g>
<g>
</g>
<g>
</g>
</svg>
