<?xml version="1.0" encoding="iso-8859-1"?>
<!-- Generator: Adobe Illustrator 19.0.0, SVG Export Plug-In . SVG Version: 6.00 Build 0)  -->
<svg version="1.1" id="Layer_1" xmlns="http://www.w3.org/2000/svg" xmlns:xlink="http://www.w3.org/1999/xlink" x="0px" y="0px"
	 viewBox="0 0 390 390" style="enable-background:new 0 0 390 390;" xml:space="preserve">
<g id="XMLID_128_">
	<rect id="XMLID_343_" x="10" y="10" style="fill:#EFEFEF;" width="370" height="370"/>
	<rect id="XMLID_331_" x="10" y="10" style="fill:#61ACD2;" width="370" height="60"/>
	<rect id="XMLID_326_" x="10" y="10" style="fill:#F4A026;" width="60" height="60"/>
	<rect id="XMLID_318_" x="320" y="10" style="fill:#CA463D;" width="60" height="60"/>
	<g id="XMLID_125_">
		<path id="XMLID_126_" d="M338.313,222.027l-75.667-67.301c-4.128-3.671-10.447-3.3-14.117,0.826
			c-3.671,4.127-3.301,10.448,0.826,14.118L316.62,229.5l-67.266,59.829c-4.127,3.67-4.497,9.991-0.826,14.118
			c1.976,2.222,4.719,3.354,7.476,3.354c2.363,0,4.737-0.833,6.642-2.528l75.667-67.301c2.134-1.898,3.354-4.617,3.354-7.472
			S340.446,223.925,338.313,222.027z"/>
		<path id="XMLID_156_" d="M141.472,155.552c-3.671-4.127-9.991-4.497-14.118-0.826l-75.667,67.301
			c-2.133,1.898-3.354,4.617-3.354,7.472s1.221,5.574,3.354,7.472l75.667,67.301c1.905,1.695,4.278,2.528,6.643,2.528
			c2.756,0,5.5-1.133,7.476-3.354c3.67-4.127,3.3-10.448-0.826-14.118L73.38,229.5l67.266-59.829
			C144.772,166,145.143,159.679,141.472,155.552z"/>
		<path id="XMLID_157_" d="M218.898,149.763c-5.279-1.597-10.868,1.386-12.469,6.672l-42,138.667
			c-1.601,5.286,1.386,10.869,6.672,12.47c0.967,0.292,1.942,0.432,2.903,0.432c4.291,0,8.258-2.785,9.567-7.104l42-138.667
			C227.172,156.947,224.185,151.364,218.898,149.763z"/>
		<path id="XMLID_170_" d="M380,0H10C4.477,0,0,4.477,0,10v370c0,5.523,4.477,10,10,10h370c5.522,0,10-4.477,10-10V10
			C390,4.477,385.522,0,380,0z M370,20v40h-40V20H370z M80,60V20h230v40H80z M20,20h40v40H20V20z M20,370V80h350v290H20z"/>
	</g>
</g>
<g>
</g>
<g>
</g>
<g>
</g>
<g>
</g>
<g>
</g>
<g>
</g>
<g>
</g>
<g>
</g>
<g>
</g>
<g>
</g>
<g>
</g>
<g>
</g>
<g>
</g>
<g>
</g>
<g>
</g>
</svg>
