<?xml version="1.0" encoding="iso-8859-1"?>
<!-- Generator: Adobe Illustrator 19.0.0, SVG Export Plug-In . SVG Version: 6.00 Build 0)  -->
<svg version="1.1" id="Layer_1" xmlns="http://www.w3.org/2000/svg" xmlns:xlink="http://www.w3.org/1999/xlink" x="0px" y="0px"
	 viewBox="0 0 452.43 452.43" style="enable-background:new 0 0 452.43 452.43;" xml:space="preserve">
<g id="XMLID_106_">
	<path id="XMLID_182_" style="fill:#61ACD2;" d="M436.246,414.145L314.027,291.925C340.258,262,356.183,222.827,356.183,180
		c0-93.738-76.262-170-170-170s-170,76.262-170,170s76.262,170,170,170c36.513,0,70.372-11.573,98.107-31.241l123.67,123.67
		C407.961,442.43,436.121,414.02,436.246,414.145z"/>
	<circle id="XMLID_1337_" style="fill:#EFEFEF;" cx="186.183" cy="180" r="130"/>
	<g id="XMLID_183_">
		<path id="XMLID_202_" d="M443.317,407.073L327.547,291.303c24.98-31.678,38.637-70.844,38.637-111.303
			c0-99.252-80.748-180-180-180s-180,80.748-180,180s80.748,180,180,180c34.608,0,67.918-9.772,96.864-28.341L400.89,449.501
			c1.953,1.952,4.512,2.929,7.071,2.929c2.457,0,4.912-0.9,6.833-2.698c0.081-0.075,0.16-0.152,0.239-0.231
			c0.026-0.026,0.047-0.054,0.072-0.08l28.213-28.206C447.223,417.311,447.223,410.979,443.317,407.073z M291.362,311.688
			c-3.447-3.447-8.879-3.904-12.855-1.086C251.385,329.834,219.46,340,186.183,340c-88.225,0-160-71.775-160-160s71.775-160,160-160
			s160,71.775,160,160c0,38.735-14.091,76.145-39.677,105.334c-3.472,3.962-3.275,9.938,0.449,13.663l116.551,116.551
			l-13.909,14.376L291.362,311.688z"/>
		<path id="XMLID_206_" d="M186.183,40c-77.196,0-140,62.804-140,140s62.804,140,140,140s140-62.804,140-140S263.38,40,186.183,40z
			 M186.183,300c-66.168,0-120-53.832-120-120s53.832-120,120-120s120,53.832,120,120S252.351,300,186.183,300z"/>
		<path id="XMLID_210_" d="M178.215,137.713c-16.542,0-30,13.458-30,30v25c0,16.542,13.458,30,30,30s30-13.458,30-30v-25
			C208.215,151.171,194.757,137.713,178.215,137.713z M188.215,192.713c0,5.514-4.486,10-10,10s-10-4.486-10-10v-25
			c0-5.514,4.486-10,10-10s10,4.486,10,10V192.713z"/>
		<path id="XMLID_213_" d="M258.215,137.713c-16.542,0-30,13.458-30,30v25c0,16.542,13.458,30,30,30s30-13.458,30-30v-25
			C288.215,151.171,274.757,137.713,258.215,137.713z M268.215,192.713c0,5.514-4.486,10-10,10s-10-4.486-10-10v-25
			c0-5.514,4.486-10,10-10s10,4.486,10,10V192.713z"/>
		<path id="XMLID_214_" d="M121.548,138.302c-3.431-1.678-7.549-1.252-10.564,1.098l-22.681,17.667
			c-4.356,3.396-5.142,9.679-1.747,14.035c3.396,4.355,9.733,5.134,14.087,1.74l6.572-5.082v44.527c0,5.522,4.478,10,10,10
			s10-4.478,10-10v-65C127.215,143.466,124.981,139.979,121.548,138.302z"/>
	</g>
</g>
<g>
</g>
<g>
</g>
<g>
</g>
<g>
</g>
<g>
</g>
<g>
</g>
<g>
</g>
<g>
</g>
<g>
</g>
<g>
</g>
<g>
</g>
<g>
</g>
<g>
</g>
<g>
</g>
<g>
</g>
</svg>
