<?xml version="1.0" encoding="iso-8859-1"?>
<!-- Generator: Adobe Illustrator 19.0.0, SVG Export Plug-In . SVG Version: 6.00 Build 0)  -->
<svg version="1.1" id="Layer_1" xmlns="http://www.w3.org/2000/svg" xmlns:xlink="http://www.w3.org/1999/xlink" x="0px" y="0px"
	 viewBox="0 0 401.456 401.456" style="enable-background:new 0 0 401.456 401.456;" xml:space="preserve">
<g id="XMLID_219_">
	<polygon id="XMLID_1350_" style="fill:#F4A026;" points="163.751,118.027 132.391,301.908 194.687,250.098 276.3,391.455 
		347.314,350.455 265.701,209.098 338.711,182.788 	"/>
	<g id="XMLID_216_">
		<path id="XMLID_224_" d="M355.974,345.456l-75.635-131.004l61.762-22.255c3.951-1.424,6.592-5.165,6.61-9.365
			c0.019-4.199-2.59-7.963-6.528-9.421l-174.96-64.762c-2.792-1.032-5.895-0.769-8.473,0.718c-2.576,1.488-4.356,4.046-4.856,6.979
			l-31.36,183.881c-0.704,4.127,1.236,8.255,4.863,10.345c3.625,2.092,8.171,1.702,11.389-0.975l53.174-44.224l75.681,131.083
			c1.326,2.297,3.51,3.973,6.072,4.659c0.852,0.229,1.721,0.341,2.588,0.341c1.74,0,3.467-0.454,5-1.34l71.014-41
			C357.097,356.354,358.735,350.239,355.974,345.456z M279.96,377.795l-76.613-132.698c-1.474-2.554-4-4.326-6.902-4.845
			c-0.585-0.104-1.173-0.155-1.758-0.155c-2.317,0-4.584,0.807-6.395,2.312l-41.495,34.512l24.785-145.332l137.98,51.074
			l-47.252,17.026c-2.786,1.004-4.984,3.191-6.002,5.973c-1.018,2.781-0.749,5.871,0.731,8.436l76.613,132.698L279.96,377.795z"/>
		<path id="XMLID_231_" d="M113.193,96.805L56.731,81.676c-5.336-1.431-10.817,1.737-12.247,7.071s1.736,10.817,7.071,12.247
			l56.463,15.129c0.867,0.232,1.737,0.344,2.594,0.344c4.415,0,8.456-2.947,9.653-7.415
			C121.694,103.718,118.528,98.235,113.193,96.805z"/>
		<path id="XMLID_232_" d="M177.3,76.124c0.867,0.232,1.737,0.344,2.594,0.344c4.415,0,8.456-2.947,9.653-7.415l15.129-56.462
			c1.43-5.334-1.736-10.817-7.071-12.247c-5.338-1.43-10.817,1.737-12.247,7.071l-15.129,56.462
			C168.799,69.21,171.965,74.694,177.3,76.124z"/>
		<path id="XMLID_233_" d="M125.914,72.981c1.853,3.208,5.213,5.002,8.67,5.002c1.696,0,3.415-0.433,4.99-1.342
			c4.783-2.762,6.422-8.877,3.66-13.66l-22.5-38.972c-2.762-4.782-8.874-6.422-13.66-3.66c-4.783,2.762-6.422,8.877-3.66,13.66
			L125.914,72.981z"/>
	</g>
</g>
<g>
</g>
<g>
</g>
<g>
</g>
<g>
</g>
<g>
</g>
<g>
</g>
<g>
</g>
<g>
</g>
<g>
</g>
<g>
</g>
<g>
</g>
<g>
</g>
<g>
</g>
<g>
</g>
<g>
</g>
</svg>
