<?xml version="1.0" encoding="iso-8859-1"?>
<!-- Generator: Adobe Illustrator 19.0.0, SVG Export Plug-In . SVG Version: 6.00 Build 0)  -->
<svg version="1.1" id="Layer_1" xmlns="http://www.w3.org/2000/svg" xmlns:xlink="http://www.w3.org/1999/xlink" x="0px" y="0px"
	 viewBox="0 0 410 410" style="enable-background:new 0 0 410 410;" xml:space="preserve">
<g id="XMLID_165_">
	<path id="XMLID_6157_" style="fill:#EFEFEF;" d="M360.128,315.472H50.106c-22.085,0-39.989-17.904-39.989-39.989V60.461
		c0-22.085,17.904-39.989,39.989-39.989h310.022c22.085,0,39.989,17.904,39.989,39.989v215.022
		C400.117,297.568,382.213,315.472,360.128,315.472z"/>
	<path id="XMLID_6149_" style="fill:#F4A026;" d="M360.128,315.472H50.106c-22.085,0-39.989-17.904-39.989-39.989v-15.011h390
		v15.011C400.117,297.568,382.213,315.472,360.128,315.472z"/>
	<path id="XMLID_811_" style="fill:#EFEFEF;" d="M284.637,390.472c-53.013,0-106.027,0-159.04,0c5.68-25,11.36-50,17.04-75
		c41.653,0,83.307,0,124.96,0C273.277,340.472,278.957,365.472,284.637,390.472z"/>
	<polygon id="XMLID_6145_" style="fill:#CA463D;" points="153,60 50,60 50,113 153,113 257,113 257,60 	"/>
	<rect id="XMLID_6141_" x="257" y="60" style="fill:#EFEFEF;" width="103" height="53"/>
	<rect id="XMLID_6137_" x="50" y="113" style="fill:#CA463D;" width="73" height="54"/>
	<rect id="XMLID_6133_" x="123" y="113" style="fill:#EFEFEF;" width="75" height="54"/>
	<rect id="XMLID_6129_" x="198" y="113" style="fill:#CA463D;" width="162" height="54"/>
	<rect id="XMLID_6125_" x="50" y="167" style="fill:#CA463D;" width="103" height="53"/>
	<polygon id="XMLID_1928_" style="fill:#CA463D;" points="258,167 257,167 153,167 153,220 257,220 258,220 360,220 360,167 	"/>
	<g id="XMLID_357_">
		<path id="XMLID_1356_" d="M360.128,10H50.106C22.542,10,0,32.897,0,60.461v215.022C0,303.048,22.542,325,50.106,325h80.004
			l-12.389,55H75c-5.523,0-10,4.478-10,10s4.477,10,10,10h260c5.523,0,10-4.478,10-10s-4.477-10-10-10h-42.488l-12.389-55h80.004
			C387.692,325,410,303.048,410,275.483V60.461C410,32.897,387.692,10,360.128,10z M50.106,30h310.022
			C376.664,30,390,43.926,390,60.461V250H20V60.461C20,43.926,33.57,30,50.106,30z M272.002,380H138.231l12.389-55h108.994
			L272.002,380z M390,275.483C390,292.02,376.664,305,360.128,305H50.106C33.57,305,20,292.02,20,275.483V270h370V275.483z"/>
		<path id="XMLID_1374_" d="M50,230h310c5.523,0,10-4.478,10-10V60c0-5.522-4.477-10-10-10H50c-5.523,0-10,4.478-10,10v160
			C40,225.522,44.477,230,50,230z M188,123v34h-55v-34H188z M350,123v34h-93h-49v-34H350z M113,157H60v-34h53V157z M60,177h83v33H60
			V177z M350,210H163v-33h187V210z M350,103h-83V70h83V103z M60,70h187v33H60V70z"/>
	</g>
</g>
<g>
</g>
<g>
</g>
<g>
</g>
<g>
</g>
<g>
</g>
<g>
</g>
<g>
</g>
<g>
</g>
<g>
</g>
<g>
</g>
<g>
</g>
<g>
</g>
<g>
</g>
<g>
</g>
<g>
</g>
</svg>
