<?xml version="1.0" encoding="iso-8859-1"?>
<!-- Generator: Adobe Illustrator 19.0.0, SVG Export Plug-In . SVG Version: 6.00 Build 0)  -->
<svg version="1.1" id="Layer_1" xmlns="http://www.w3.org/2000/svg" xmlns:xlink="http://www.w3.org/1999/xlink" x="0px" y="0px"
	 viewBox="0 0 381.706 381.706" style="enable-background:new 0 0 381.706 381.706;" xml:space="preserve">
<g id="XMLID_23_">
	<path id="XMLID_503_" style="fill:#CA463D;" d="M217.841,273.466c-28.333,28.333-74.433,28.333-102.766,0l-6.836-6.836
		c-28.333-28.333-28.333-74.433,0-102.766l56.333-56.333c28.333-28.333,74.433-28.333,102.766,0l6.836,6.836
		c28.333,28.333,28.333,74.433,0,102.766l-28.284-28.284c12.737-12.737,12.737-33.461,0-46.197l-6.836-6.836
		c-12.737-12.737-33.461-12.737-46.197,0l-56.333,56.333c-12.737,12.737-12.737,33.461,0,46.197l6.836,6.836
		c12.737,12.737,33.461,12.737,46.197,0L217.841,273.466z"/>
	<path id="XMLID_499_" style="fill:#61ACD2;" d="M217.369,164.336c-7.811-7.811-7.811-20.474,0-28.284L337.578,15.844
		c7.811-7.811,20.474-7.811,28.284,0c7.811,7.811,7.811,20.474,0,28.284L245.654,164.336
		C237.843,172.147,225.18,172.147,217.369,164.336z"/>
	<path id="XMLID_490_" style="fill:#61ACD2;" d="M15.844,365.861c-7.811-7.811-7.811-20.474,0-28.284l120.208-120.208
		c7.811-7.811,20.474-7.811,28.284,0c7.811,7.811,7.811,20.474,0,28.284L44.128,365.861
		C36.318,373.672,23.655,373.672,15.844,365.861z"/>
	<g id="XMLID_25_">
		<path id="XMLID_424_" d="M372.933,8.772c-11.696-11.695-30.729-11.696-42.427,0l-76.687,76.687
			c-31.1-16.008-70.292-11.026-96.318,15.001l-56.334,56.333c-26.026,26.026-31.009,65.219-15.001,96.318L8.773,330.506
			c-11.697,11.697-11.697,30.73,0,42.427c5.849,5.848,13.531,8.772,21.213,8.772s15.365-2.924,21.213-8.772l77.375-77.375
			c11.566,5.974,24.471,9.158,37.883,9.158c22.103,0,42.862-8.587,58.454-24.179c3.905-3.905,3.905-10.237,0-14.142l-28.284-28.284
			c-1.875-1.875-4.419-2.929-7.071-2.929s-5.196,1.054-7.071,2.929c-1.198,1.197-2.516,2.226-3.914,3.113
			c3.571-10.489,1.186-22.576-7.164-30.926c-8.35-8.349-20.437-10.734-30.926-7.163c0.886-1.398,1.916-2.717,3.113-3.914
			l56.333-56.333c1.035-1.035,2.149-1.94,3.318-2.731c-3.732,10.563-1.383,22.815,7.052,31.251c0,0,0,0,0,0
			c5.849,5.848,13.531,8.772,21.213,8.772c3.402,0,6.803-0.576,10.045-1.723c-0.8,1.178-1.71,2.292-2.738,3.32
			c-1.875,1.875-2.929,4.419-2.929,7.071s1.054,5.196,2.929,7.071l28.285,28.284c3.905,3.905,10.237,3.904,14.142,0
			c26.026-26.026,31.009-65.219,15.001-96.318l76.687-76.687C384.63,39.502,384.63,20.47,372.933,8.772z M188.726,258.493
			l14.413,14.413c-10.595,7.67-23.312,11.81-36.681,11.81c-7.931,0-15.631-1.459-22.795-4.246l16.241-16.241
			c2.149,0.331,4.338,0.505,6.555,0.505C174.446,264.735,182.094,262.561,188.726,258.493z M150.194,221.516
			c2.561,0,5.122,0.975,7.071,2.924c3.899,3.899,3.899,10.243,0,14.142L37.057,358.79c-3.898,3.899-10.243,3.899-14.142,0
			c-3.899-3.899-3.899-10.243,0-14.142L143.123,224.44C145.072,222.491,147.633,221.516,150.194,221.516z M185.785,128.745
			l-56.333,56.333c-8.049,8.049-12.482,18.763-12.482,30.17c0,2.217,0.174,4.405,0.505,6.555l-16.22,16.22
			c-8.731-22.463-4.052-48.98,14.054-67.087l56.334-56.333c12.217-12.217,28.264-18.325,44.312-18.325
			c7.737,0,15.471,1.426,22.777,4.269l-16.234,16.235C209.509,114.778,195.769,118.761,185.785,128.745z M273.61,202.428
			l-14.41-14.409c4.067-6.632,6.241-14.28,6.241-22.268c0-2.217-0.175-4.406-0.505-6.555l16.212-16.212
			C288.719,162.461,286.219,184.98,273.61,202.428z M358.791,37.056L238.582,157.265c-3.898,3.899-10.243,3.899-14.142,0v0
			c-3.899-3.899-3.899-10.244,0-14.143L344.648,22.915c3.9-3.899,10.244-3.9,14.143,0C362.69,26.814,362.69,33.158,358.791,37.056z"
			/>
		<path id="XMLID_437_" d="M281.009,266.159c-3.905-3.905-10.237-3.905-14.142,0c-3.905,3.905-3.906,10.237,0,14.142l32.527,32.527
			c1.953,1.953,4.512,2.929,7.071,2.929c2.559,0,5.119-0.977,7.071-2.929c3.905-3.905,3.906-10.237,0-14.142L281.009,266.159z"/>
		<path id="XMLID_438_" d="M355.433,244.404l-49.587-7.16c-5.465-0.788-10.538,3.001-11.327,8.468
			c-0.789,5.466,3.002,10.537,8.468,11.327l49.587,7.16c0.485,0.07,0.966,0.104,1.442,0.104c4.89,0,9.166-3.591,9.885-8.572
			C364.69,250.264,360.899,245.193,355.433,244.404z"/>
		<path id="XMLID_439_" d="M257.746,302.28c-0.789-5.466-5.864-9.255-11.327-8.468c-5.466,0.79-9.257,5.86-8.468,11.327l7.16,49.586
			c0.719,4.981,4.995,8.572,9.885,8.572c0.476,0,0.958-0.034,1.442-0.104c5.466-0.79,9.257-5.86,8.468-11.327L257.746,302.28z"/>
	</g>
</g>
<g>
</g>
<g>
</g>
<g>
</g>
<g>
</g>
<g>
</g>
<g>
</g>
<g>
</g>
<g>
</g>
<g>
</g>
<g>
</g>
<g>
</g>
<g>
</g>
<g>
</g>
<g>
</g>
<g>
</g>
</svg>
