<svg aria-hidden="true" style="position: absolute; width: 0; height: 0; overflow: hidden;" version="1.1" xmlns="http://www.w3.org/2000/svg" xmlns:xlink="http://www.w3.org/1999/xlink">
<defs>
  <symbol xmlns="http://www.w3.org/2000/svg" viewBox="0 0 24 24" id="place_black_24dp">
    <path d="M0 0h24v24H0z" fill="none"></path>
    <path d="M12 12c-1.1 0-2-.9-2-2s.9-2 2-2 2 .9 2 2-.9 2-2 2zm6-1.8C18 6.57 15.35 4 12 4s-6 2.57-6 6.2c0 2.34 1.95 5.44 6 9.14 4.05-3.7 6-6.8 6-9.14zM12 2c4.2 0 8 3.22 8 8.2 0 3.32-2.67 7.25-8 11.8-5.33-4.55-8-8.48-8-11.8C4 5.22 7.8 2 12 2z"></path>
  </symbol>
  <symbol xmlns="http://www.w3.org/2000/svg" viewBox="0 0 24 24" id="phone_in_talk_black_24dp">
    <path d="M0 0h24v24H0V0z" fill="none"></path>
    <path d="M15 12h2c0-2.76-2.24-5-5-5v2c1.66 0 3 1.34 3 3zm4 0h2a9 9 0 00-9-9v2c3.87 0 7 3.13 7 7zm1 3.5c-1.25 0-2.45-.2-3.57-.57-.1-.03-.21-.05-.31-.05-.26 0-.51.1-.71.29l-2.2 2.2a15.045 15.045 0 01-6.59-6.59l2.2-2.21a.96.96 0 00.25-1A11.36 11.36 0 018.5 4c0-.55-.45-1-1-1H4c-.55 0-1 .45-1 1 0 9.39 7.61 17 17 17 .55 0 1-.45 1-1v-3.5c0-.55-.45-1-1-1zM5.03 5h1.5c.07.88.22 1.75.45 2.58l-1.2 1.21c-.4-1.21-.66-2.47-.75-3.79zM19 18.97c-1.32-.09-2.6-.35-3.8-.76l1.2-1.2c.85.24 1.72.39 2.6.45v1.51z"></path>
  </symbol>
  <symbol xmlns="http://www.w3.org/2000/svg" viewBox="0 0 24 24" id="alternate_email_black_24dp">
    <path d="M0 0h24v24H0V0z" fill="none"></path>
    <path d="M12 1.95c-5.52 0-10 4.48-10 10s4.48 10 10 10h5v-2h-5c-4.34 0-8-3.66-8-8s3.66-8 8-8 8 3.66 8 8v1.43c0 .79-.71 1.57-1.5 1.57s-1.5-.78-1.5-1.57v-1.43c0-2.76-2.24-5-5-5s-5 2.24-5 5 2.24 5 5 5c1.38 0 2.64-.56 3.54-1.47.65.89 1.77 1.47 2.96 1.47 1.97 0 3.5-1.6 3.5-3.57v-1.43c0-5.52-4.48-10-10-10zm0 13c-1.66 0-3-1.34-3-3s1.34-3 3-3 3 1.34 3 3-1.34 3-3 3z"></path>
  </symbol>
  <symbol fill="none" xmlns="http://www.w3.org/2000/svg" viewBox="0 0 24 24" id="facebook">
    <path fill-rule="evenodd" clip-rule="evenodd" d="M10.5 7.309c-.107.849-.108 1.748-.108 2.634a.5.5 0 01-.5.5H7.5v2.31h2.392a.5.5 0 01.5.5V21a.5.5 0 11-1 0v-7.246H7a.5.5 0 01-.5-.5V9.943a.5.5 0 01.5-.5h2.393c.003-.734.02-1.51.114-2.259.116-.922.352-1.843.853-2.626 1.043-1.632 3.074-2.44 6.716-1.88a.5.5 0 01.424.494V6.04a.5.5 0 01-.553.497c-1.548-.164-2.117.039-2.395.404-.156.204-.273.521-.345 1.031-.057.4-.08.883-.089 1.47H17a.5.5 0 01.49.6l-.677 3.312a.5.5 0 01-.49.4h-2.208V21a.5.5 0 11-1 0v-7.746a.5.5 0 01.5-.5h2.3l.472-2.311h-2.772a.5.5 0 01-.5-.5c0-.822.02-1.527.101-2.11.082-.58.234-1.095.54-1.497.564-.742 1.496-.917 2.744-.84v-1.89c-3.168-.404-4.595.392-5.298 1.491-.388.607-.596 1.363-.703 2.212z" fill="#000"></path>
  </symbol>
  <symbol fill="none" xmlns="http://www.w3.org/2000/svg" viewBox="0 0 24 24" id="twitter">
    <path fill-rule="evenodd" clip-rule="evenodd" d="M3.484 4.501a.5.5 0 01.497.306c.674 1.613 2.084 2.784 3.634 3.594a13.787 13.787 0 003.655 1.275c.1-1.146.384-2.038.813-2.712a3.37 3.37 0 011.941-1.47c1.42-.413 3.014.052 4.061.58.533.042 1.06.02 1.52-.06.496-.084.875-.228 1.104-.391a.5.5 0 01.789.452c-.108 1.172-.456 2.01-.897 2.603a3.4 3.4 0 01-1.092.965c-1.006 6.294-3.943 9.292-7.327 10.37-3.37 1.073-7.048.196-9.396-.917a.5.5 0 11.428-.904c2.217 1.051 5.621 1.837 8.665.868 2.983-.95 5.757-3.634 6.68-9.823a.5.5 0 01.293-.383c.267-.118.628-.343.946-.772.214-.287.416-.68.555-1.214a5.102 5.102 0 01-.58.133c-.58.1-1.231.12-1.875.06a.5.5 0 01-.186-.055c-.947-.495-2.31-.872-3.409-.552A2.37 2.37 0 0012.928 7.5c-.373.585-.647 1.468-.692 2.775a.5.5 0 01-.566.478c-1.113-.149-2.856-.598-4.518-1.466-1.261-.66-2.51-1.58-3.387-2.823a12.095 12.095 0 00.212 3.969c.471 2.062 1.588 4.147 3.867 5.559a.5.5 0 01.169.677c-.294.502-1.22 1.364-2.816 1.593a.5.5 0 11-.142-.99c.865-.124 1.443-.469 1.774-.753C4.6 14.95 3.483 12.767 3 10.657c-.513-2.248-.314-4.436.034-5.782a.5.5 0 01.449-.374z" fill="#000"></path>
  </symbol>
    <symbol fill="none" xmlns="http://www.w3.org/2000/svg" viewBox="0 0 24 24" id="instagram">
    <path fill-rule="evenodd" clip-rule="evenodd" d="M7.435 2.5h7.081a.5.5 0 01.204.957l-.187.083c-1.16.516-2.788 1.24-4.145 2.384-1.416 1.194-2.502 2.812-2.437 5.105.068 2.379 1.21 3.806 2.511 4.423 1.33.631 2.823.43 3.7-.446.895-.893 1.133-2.352.724-3.617-.403-1.243-1.397-2.2-2.886-2.2a.5.5 0 110-1c2.011 0 3.33 1.327 3.837 2.892.5 1.545.246 3.42-.968 4.633-1.23 1.228-3.197 1.42-4.836.641-1.668-.791-3.004-2.575-3.081-5.297-.077-2.683 1.217-4.571 2.792-5.898.81-.683 1.704-1.225 2.536-1.66H7.46c-.636.023-1.625.3-2.45 1.067-.814.756-1.51 2.027-1.51 4.122v7.45a4.75 4.75 0 00.997 2.729c.706.889 1.883 1.632 3.826 1.632h7.815c.71-.07 1.797-.427 2.705-1.279.903-.846 1.657-2.207 1.657-4.352V7.325a2.687 2.687 0 00-.537-1.46c-.364-.471-.964-.877-1.972-.894-1.003-.017-1.428.378-1.6.73a1.2 1.2 0 00-.117.597.748.748 0 00.12.393c.336.43.636.44.79.395a.436.436 0 00.316-.408.5.5 0 111 0c0 .644-.438 1.189-1.03 1.366-.627.187-1.328-.052-1.863-.735-.203-.26-.309-.604-.331-.946a2.2 2.2 0 01.216-1.1c.373-.763 1.198-1.314 2.516-1.292 1.316.023 2.2.574 2.747 1.282a3.69 3.69 0 01.745 2.046v7.57c0 2.407-.859 4.037-1.973 5.082-1.098 1.03-2.416 1.465-3.32 1.547a.493.493 0 01-.046.002H8.323c-2.238 0-3.707-.875-4.609-2.01A5.75 5.75 0 012.5 16.154V8.69c0-2.338.788-3.887 1.829-4.855C5.355 2.881 6.587 2.528 7.435 2.5z" fill="#000"></path>
  </symbol>
</defs>
</svg>